<?xml version="1.0" standalone="no"?>
<!DOCTYPE svg PUBLIC "-//W3C//DTD SVG 20010904//EN"
 "http://www.w3.org/TR/2001/REC-SVG-20010904/DTD/svg10.dtd">
<svg version="1.0" xmlns="http://www.w3.org/2000/svg"
 width="16.000000pt" height="16.000000pt" viewBox="0 0 16.000000 16.000000"
 preserveAspectRatio="xMidYMid meet">
<metadata>
Created by potrace 1.11, written by Peter Selinger 2001-2013
</metadata>
<g transform="translate(0.000000,16.000000) scale(0.006250,-0.006250)"
fill="#000000" stroke="none">
<path d="M1227 2503 c-34 -9 -952 -543 -980 -569 -58 -55 -57 -46 -57 -656 0
-530 1 -561 19 -596 22 -43 51 -72 101 -100 19 -11 177 -101 350 -202 173
-100 340 -196 370 -212 30 -17 60 -34 65 -38 6 -5 37 -23 70 -41 47 -26 72
-33 115 -34 63 0 7 -29 555 288 171 99 337 195 370 213 86 47 125 81 146 128
17 38 19 75 19 597 0 591 0 589 -48 645 -15 18 -116 81 -242 152 -25 14 -76
44 -115 67 -38 22 -77 44 -85 48 -8 4 -24 13 -35 20 -26 16 -170 99 -215 124
-19 11 -91 53 -160 93 -104 61 -133 74 -175 76 -27 2 -58 0 -68 -3z m192 -477
c199 -42 339 -169 370 -338 10 -54 10 -54 -73 -53 l-59 0 -12 47 c-35 140
-175 229 -360 229 -209 0 -358 -115 -356 -275 1 -145 89 -204 421 -286 180
-45 290 -93 364 -161 69 -63 99 -128 101 -227 4 -131 -28 -216 -115 -302 -98
-98 -227 -143 -415 -143 -277 -2 -474 124 -531 338 -23 86 -24 86 55 84 l68
-1 16 -58 c20 -69 82 -143 154 -183 143 -77 384 -71 505 14 138 97 162 276 51
381 -57 54 -109 73 -438 163 -259 71 -367 168 -382 348 -6 69 11 146 44 207
32 57 110 133 166 162 117 61 289 82 426 54z"/>
</g>
</svg>
