<svg xmlns="http://www.w3.org/2000/svg"><symbol id="ban" viewBox="0 0 22 24">
    <path fill-rule="evenodd" d="M11 22c5.523 0 10-4.477 10-10S16.523 2 11 2 1 6.477 1 12s4.477 10 10 10zm-6.33-5.116A8.001 8.001 0 0 1 15.898 5.658L4.67 16.884zm1.371 1.458L17.267 7.116A8.001 8.001 0 0 1 6.041 18.342z"/>
</symbol><symbol id="cross" viewBox="0 0 16 24">
    <path fill-rule="evenodd" d="M9 7V3H7v4H1v2h6v13h2V9h6V7H9z"/>
</symbol><symbol id="facebook" viewBox="0 0 24 24">
    <path fill-rule="nonzero" d="M16.184 22.979h5.59a1.21 1.21 0 0 0 1.208-1.208V2.258a1.21 1.21 0 0 0-1.208-1.209H2.258a1.21 1.21 0 0 0-1.209 1.209V21.77a1.21 1.21 0 0 0 1.209 1.208h10.506v-8.49h-2.86v-3.313h2.86V8.734c0-2.827 1.726-4.372 4.258-4.372 1.209 0 2.253.09 2.557.131v2.96h-1.751c-1.381 0-1.644.649-1.644 1.61v2.113h3.28l-.428 3.312h-2.852v8.49z"/>
</symbol><symbol id="github" viewBox="0 0 24 24">
    <path fill-rule="evenodd" d="M11.999 1C5.926 1 1 5.925 1 12c0 4.86 3.152 8.983 7.523 10.437.55.102.75-.238.75-.53 0-.26-.009-.952-.014-1.87-3.06.664-3.706-1.475-3.706-1.475-.5-1.27-1.221-1.61-1.221-1.61-.999-.681.075-.668.075-.668 1.105.078 1.685 1.134 1.685 1.134.981 1.68 2.575 1.195 3.202.914.1-.71.384-1.195.698-1.47-2.442-.278-5.01-1.222-5.01-5.437 0-1.2.428-2.183 1.132-2.952-.114-.278-.491-1.397.108-2.91 0 0 .923-.297 3.025 1.127A10.536 10.536 0 0 1 12 6.32c.935.004 1.876.125 2.754.37 2.1-1.424 3.022-1.128 3.022-1.128.6 1.514.223 2.633.11 2.911.705.769 1.13 1.751 1.13 2.952 0 4.226-2.572 5.156-5.022 5.428.395.34.747 1.01.747 2.037 0 1.47-.014 2.657-.014 3.017 0 .295.199.637.756.53C19.851 20.979 23 16.859 23 12c0-6.075-4.926-11-11.001-11"/>
</symbol><symbol id="google-plus" viewBox="0 0 37 24">
    <path fill-rule="nonzero" d="M11.992 9.825v4.358s4.221-.008 5.945-.008c-.934 2.82-2.378 4.357-5.945 4.357-3.61 0-6.422-2.922-6.422-6.532s2.82-6.532 6.422-6.532c1.91 0 3.142.671 4.272 1.605.909-.909.833-1.036 3.134-3.21A10.975 10.975 0 0 0 12 1C5.927 1 1 5.927 1 12s4.927 11 11 11c9.08 0 11.297-7.908 10.558-13.175H11.992zm19.642-.011V6h-2.718v3.814H25v2.718h3.916v3.916h2.718v-3.916h3.814V9.814h-3.814z"/>
</symbol><symbol id="heart" viewBox="0 0 20 24">
    <path fill-rule="nonzero" d="M19 10.018C19 7.247 16.87 5 14.242 5 12.388 5 10.785 6.121 10 7.753 9.215 6.121 7.612 5 5.758 5 3.13 5 1 7.247 1 10.018 1 15.26 8.983 21 10 21c1.018 0 9-5.715 9-10.982z"/>
</symbol><symbol id="home" viewBox="0 0 24 24">
    <path fill-rule="evenodd" d="M12 2L1 12h3v10h16V12h3l-4-3.636V4h-3v1.636L12 2zm2 18h4v-9.843l-6-5.454-6 5.454V20h4v-5h4v5z"/>
</symbol><symbol id="instagram" viewBox="0 0 24 24">
    <path fill-rule="evenodd" d="M11.997 1.007c-2.987 0-3.361.013-4.534.066-1.17.054-1.97.24-2.67.511a5.39 5.39 0 0 0-1.947 1.269A5.39 5.39 0 0 0 1.577 4.8c-.272.7-.457 1.5-.51 2.67C1.012 8.643 1 9.017 1 12.003c0 2.987.013 3.361.066 4.534.054 1.17.24 1.97.511 2.67a5.39 5.39 0 0 0 1.269 1.947 5.39 5.39 0 0 0 1.947 1.269c.7.272 1.5.457 2.67.51 1.173.054 1.547.067 4.534.067 2.986 0 3.36-.013 4.533-.066 1.17-.054 1.97-.24 2.67-.511a5.39 5.39 0 0 0 1.947-1.269 5.39 5.39 0 0 0 1.269-1.947c.272-.7.457-1.5.51-2.67.054-1.173.067-1.547.067-4.534 0-2.986-.013-3.36-.066-4.533-.053-1.17-.24-1.97-.511-2.67a5.39 5.39 0 0 0-1.269-1.947A5.39 5.39 0 0 0 19.2 1.584c-.7-.272-1.5-.458-2.67-.51-1.173-.054-1.547-.067-4.533-.067zm0 1.981c2.936 0 3.284.012 4.443.064 1.072.05 1.654.228 2.042.379.513.2.88.438 1.264.823.385.384.623.75.823 1.264.15.388.33.97.379 2.042.052 1.16.064 1.507.064 4.443 0 2.937-.012 3.284-.064 4.444-.05 1.072-.228 1.654-.379 2.042-.2.513-.438.88-.823 1.264a3.407 3.407 0 0 1-1.264.823c-.388.15-.97.33-2.042.379-1.16.052-1.507.064-4.443.064-2.937 0-3.285-.012-4.444-.064-1.072-.05-1.654-.229-2.042-.38-.513-.199-.88-.437-1.264-.822a3.407 3.407 0 0 1-.823-1.264c-.15-.388-.33-.97-.379-2.042-.052-1.16-.064-1.507-.064-4.444 0-2.936.012-3.284.064-4.443.05-1.072.229-1.654.38-2.042.199-.513.437-.88.822-1.264A3.407 3.407 0 0 1 5.51 3.43c.388-.15.97-.33 2.042-.379 1.16-.052 1.507-.064 4.444-.064zm0 12.681a3.665 3.665 0 1 1 0-7.331 3.665 3.665 0 0 1 0 7.331zm0-9.312a5.647 5.647 0 1 0 0 11.293 5.647 5.647 0 0 0 0-11.293zm7.19-.223a1.32 1.32 0 1 1-2.64 0 1.32 1.32 0 0 1 2.64 0"/>
</symbol><symbol id="linkedin" viewBox="0 0 24 24">
    <path fill-rule="evenodd" d="M19.748 19.747h-3.263v-5.106c0-1.217-.021-2.784-1.696-2.784-1.698 0-1.957 1.327-1.957 2.697v5.193h-3.26v-10.5h3.129v1.436h.045c.435-.825 1.5-1.696 3.087-1.696 3.304 0 3.915 2.174 3.915 5.002v5.758zM5.894 7.813A1.892 1.892 0 1 1 5.89 4.03a1.892 1.892 0 0 1 .004 3.783zM4.26 19.747h3.266v-10.5H4.26v10.5zM21.373 1H2.623C1.727 1 1 1.71 1 2.586v18.827C1 22.289 1.727 23 2.623 23h18.75C22.27 23 23 22.289 23 21.413V2.586C23 1.71 22.27 1 21.373 1z"/>
</symbol><symbol id="star" viewBox="0 0 24 24">
    <path fill-rule="evenodd" d="M12 17.5l-5.878 3.59 1.598-6.7-5.23-4.48 6.865-.55L12 3l2.645 6.36 6.866.55-5.231 4.48 1.598 6.7z"/>
</symbol><symbol id="three-bars" viewBox="0 0 24 24">
    <path fill-rule="evenodd" d="M4 5h16v2H4V5zm0 6h16v2H4v-2zm0 6h16v2H4v-2z"/>
</symbol><symbol id="twitter" viewBox="0 0 29 24">
    <path fill-rule="evenodd" d="M28.071 3.604c-.996.442-2.066.74-3.19.875a5.57 5.57 0 0 0 2.442-3.073 11.123 11.123 0 0 1-3.527 1.348 5.554 5.554 0 0 0-9.464 5.066A15.768 15.768 0 0 1 2.885 2.016a5.528 5.528 0 0 0-.752 2.792c0 1.927.98 3.627 2.47 4.623a5.532 5.532 0 0 1-2.515-.695v.07a5.557 5.557 0 0 0 4.455 5.446 5.561 5.561 0 0 1-2.509.095 5.56 5.56 0 0 0 5.188 3.857 11.144 11.144 0 0 1-6.897 2.377c-.448 0-.89-.026-1.325-.077A15.72 15.72 0 0 0 9.514 23c10.215 0 15.802-8.463 15.802-15.802 0-.241-.006-.48-.016-.719a11.288 11.288 0 0 0 2.771-2.875"/>
</symbol><symbol id="x" viewBox="0 0 16 24">
    <path fill-rule="evenodd" d="M8 10.586L2.343 4.929.93 6.343 6.586 12 .929 17.657l1.414 1.414L8 13.414l5.657 5.657 1.414-1.414L9.414 12l5.657-5.657-1.414-1.414z"/>
</symbol><symbol id="youtube" viewBox="0 0 33 24">
    <path fill-rule="evenodd" d="M13.41 16.057V7.27l8.45 4.41-8.45 4.378zM31.967 5.746s-.305-2.155-1.243-3.105C29.534 1.396 28.2 1.39 27.59 1.316 23.212 1 16.647 1 16.647 1h-.014s-6.566 0-10.943.316c-.612.073-1.944.08-3.134 1.325-.938.95-1.243 3.105-1.243 3.105S1 8.277 1 10.809v2.373c0 2.53.313 5.062.313 5.062s.305 2.156 1.243 3.105c1.19 1.246 2.753 1.206 3.449 1.337 2.502.24 10.635.314 10.635.314s6.572-.01 10.95-.326c.61-.073 1.944-.08 3.134-1.325.938-.95 1.243-3.105 1.243-3.105s.312-2.531.312-5.062v-2.373c0-2.532-.312-5.063-.312-5.063z"/>
</symbol></svg>