<svg xmlns="http://www.w3.org/2000/svg"><symbol id="ban" viewBox="0 0 24 24">
    <path fill-rule="evenodd" d="M12 22c5.523 0 10-4.477 10-10S17.523 2 12 2 2 6.477 2 12s4.477 10 10 10zm-6.33-5.116A8.001 8.001 0 0 1 16.898 5.658L5.67 16.884zm1.371 1.458L18.267 7.116A8.001 8.001 0 0 1 7.041 18.342z"/>
</symbol><symbol id="cross" viewBox="0 0 24 24">
    <path fill-rule="evenodd" d="M13 7V3h-2v4H5v2h6v13h2V9h6V7h-6z"/>
</symbol><symbol id="facebook" viewBox="0 0 24 24">
    <path fill-rule="nonzero" d="M16.706 23.896V13.452h3.504l.521-4.068h-4.025v-2.6c0-1.176.327-1.981 2.012-1.981h2.154V1.159C20.502 1.106 19.222 1 17.74 1c-3.107 0-5.226 1.901-5.226 5.386v3.007H9v4.068h3.513v10.435h4.193z"/>
</symbol><symbol id="github" viewBox="0 0 24 24">
    <path fill-rule="evenodd" d="M12 1.025c-6.075 0-11 4.925-11 11 0 4.86 3.15 8.983 7.523 10.438.55.1.724-.225.724-.517 0-.261.005-.991 0-1.91-3.06.666-3.694-1.448-3.694-1.448-.5-1.271-1.22-1.61-1.22-1.61-.999-.682.074-.668.074-.668 1.104.077 1.686 1.133 1.686 1.133.981 1.68 2.574 1.195 3.2.914.1-.71.385-1.195.7-1.47-2.443-.278-5.01-1.222-5.01-5.437 0-1.202.428-2.183 1.131-2.952-.113-.278-.491-1.396.108-2.911 0 0 .924-.296 3.025 1.128A10.528 10.528 0 0 1 12 6.345a10.54 10.54 0 0 1 2.754.37c2.1-1.423 3.023-1.128 3.023-1.128.6 1.515.222 2.633.11 2.911.703.77 1.13 1.75 1.13 2.952 0 4.226-2.572 5.156-5.023 5.428.395.34.753 1 .753 2.026v3.045c0 .294.177.62.736.513C19.852 21.005 23 16.884 23 12.025c0-6.075-4.925-11-11-11z"/>
</symbol><symbol id="google-plus" viewBox="0 0 24 24">
    <path fill-rule="nonzero" d="M7.624 11.112v3.017s2.923-.005 4.117-.005c-.647 1.952-1.647 3.017-4.117 3.017-2.5 0-4.448-2.023-4.448-4.523 0-2.5 1.953-4.524 4.448-4.524 1.323 0 2.176.465 2.958 1.112.63-.63.577-.718 2.17-2.224A7.6 7.6 0 0 0 7.63 5a7.62 7.62 0 0 0-7.617 7.618 7.62 7.62 0 0 0 7.617 7.617c6.289 0 7.824-5.476 7.312-9.123H7.624zm13.729.147V8.618H19.47v2.64h-2.712v1.883h2.712v2.712h1.882V13.14h2.641V11.26h-2.641z"/>
</symbol><symbol id="heart" viewBox="0 0 24 24">
    <path fill-rule="nonzero" d="M21 10.018C21 7.247 18.87 5 16.242 5 14.388 5 12.785 6.121 12 7.753 11.215 6.121 9.612 5 7.758 5 5.13 5 3 7.247 3 10.018 3 15.26 10.983 21 12 21c1.018 0 9-5.715 9-10.982z"/>
</symbol><symbol id="home" viewBox="0 0 24 24">
    <path fill-rule="evenodd" d="M12 2L1 12h3v10h16V12h3l-4-3.636V4h-3v1.636L12 2zm2 18h4v-9.843l-6-5.454-6 5.454V20h4v-5h4v5z"/>
</symbol><symbol id="instagram" viewBox="0 0 24 24">
    <path fill-rule="evenodd" d="M22.366 4.736A5.376 5.376 0 0 0 21.1 2.789a5.376 5.376 0 0 0-1.947-1.267c-.697-.272-1.505-.459-2.67-.51-1.172-.05-1.546-.068-4.539-.068-2.992 0-3.366.009-4.54.068-1.172.051-1.971.238-2.668.51A5.376 5.376 0 0 0 2.789 2.79a5.376 5.376 0 0 0-1.267 1.947c-.272.697-.459 1.504-.51 2.669-.05 1.173-.068 1.547-.068 4.54 0 2.992.009 3.366.068 4.539.051 1.173.238 1.972.51 2.669.28.722.655 1.335 1.267 1.947a5.376 5.376 0 0 0 1.947 1.266c.697.272 1.504.46 2.669.51 1.173.051 1.547.068 4.54.068 2.992 0 3.366-.008 4.539-.068 1.173-.05 1.972-.238 2.669-.51A5.376 5.376 0 0 0 21.1 21.1a5.376 5.376 0 0 0 1.266-1.947c.272-.697.46-1.505.51-2.67.051-1.172.068-1.546.068-4.539 0-2.992-.008-3.366-.068-4.54-.05-1.172-.238-1.971-.51-2.668zm-1.47 11.654c-.051 1.071-.23 1.658-.383 2.04-.196.51-.442.884-.825 1.267-.382.382-.748.62-1.266.825-.391.153-.97.331-2.04.382-1.165.051-1.505.068-4.446.068-2.942 0-3.29-.008-4.446-.068-1.071-.051-1.658-.23-2.04-.382a3.407 3.407 0 0 1-1.267-.825 3.444 3.444 0 0 1-.825-1.267c-.153-.39-.331-.969-.382-2.04-.051-1.164-.068-1.513-.068-4.446s.008-3.29.068-4.446c.05-1.07.23-1.657.382-2.04.196-.51.442-.884.825-1.266.383-.383.748-.621 1.267-.825.39-.153.969-.332 2.04-.383 1.164-.05 1.513-.068 4.446-.068s3.29.009 4.446.068c1.07.051 1.657.23 2.04.383.51.195.884.442 1.266.825.383.382.621.748.825 1.266.153.391.332.97.383 2.04.05 1.165.068 1.513.068 4.446s-.017 3.29-.068 4.446zm-8.96-10.099a5.656 5.656 0 0 0-5.653 5.653 5.656 5.656 0 0 0 5.653 5.653 5.656 5.656 0 0 0 5.653-5.653 5.656 5.656 0 0 0-5.653-5.653zm5.874 1.097a1.318 1.318 0 1 0 0-2.635 1.318 1.318 0 0 0 0 2.635zm-5.874 8.229a3.673 3.673 0 1 1 3.672-3.673 3.679 3.679 0 0 1-3.672 3.673z"/>
</symbol><symbol id="linkedin" viewBox="0 0 24 24">
    <path fill-rule="nonzero" d="M8.768 8.305h4.357v2.013h.06c.609-1.155 2.09-2.37 4.307-2.37 4.603 0 5.457 3.041 5.457 7V23h-4.544v-7.144c0-1.707-.025-3.898-2.36-3.898-2.37 0-2.725 1.86-2.725 3.771V23H8.776L8.768 8.305zm-7.413 0h4.553V23H1.355V8.305zM3.64 1c1.455 0 2.64 1.19 2.64 2.65A2.649 2.649 0 0 1 3.64 6.3 2.643 2.643 0 0 1 1 3.65 2.643 2.643 0 0 1 3.64 1z"/>
</symbol><symbol id="star" viewBox="0 0 24 24">
    <path fill-rule="evenodd" d="M12 17.5l-5.878 3.59 1.598-6.7-5.23-4.48 6.865-.55L12 3l2.645 6.36 6.866.55-5.231 4.48 1.598 6.7z"/>
</symbol><symbol id="three-bars" viewBox="0 0 24 24">
    <path fill-rule="evenodd" d="M4 5h16v2H4V5zm0 6h16v2H4v-2zm0 6h16v2H4v-2z"/>
</symbol><symbol id="twitter" viewBox="0 0 24 24">
    <path fill-rule="nonzero" d="M23.23 5.138a9.052 9.052 0 0 1-2.62.718 4.578 4.578 0 0 0 2.007-2.522A9.133 9.133 0 0 1 19.72 4.44 4.559 4.559 0 0 0 16.39 3a4.56 4.56 0 0 0-4.56 4.56c0 .358.039.706.117 1.04a12.95 12.95 0 0 1-9.401-4.765 4.547 4.547 0 0 0-.617 2.293c0 1.583.805 2.978 2.028 3.796a4.547 4.547 0 0 1-2.065-.57v.057a4.564 4.564 0 0 0 3.658 4.473 4.59 4.59 0 0 1-2.06.078 4.566 4.566 0 0 0 4.26 3.168 9.149 9.149 0 0 1-5.663 1.953c-.368 0-.732-.022-1.088-.064a12.92 12.92 0 0 0 6.991 2.048c8.389 0 12.977-6.95 12.977-12.977 0-.197-.006-.395-.014-.59a9.252 9.252 0 0 0 2.276-2.362z"/>
</symbol><symbol id="x" viewBox="0 0 24 24">
    <path fill-rule="evenodd" d="M12 10.586L6.343 4.929 4.93 6.343 10.586 12l-5.657 5.657 1.414 1.414L12 13.414l5.657 5.657 1.414-1.414L13.414 12l5.657-5.657-1.414-1.414z"/>
</symbol></svg>